<svg xmlns="http://www.w3.org/2000/svg" width="24" height="24" viewBox="0 0 24 24">
    <g fill="none" fill-rule="evenodd">
        <g fill="#1B3C59">
            <g>
                <g>
                    <g>
                        <path d="M5.515 16l1.18-1.182c.378-.378.586-.88.586-1.414V8.727c0-1.357.59-2.654 1.62-3.556 1.038-.91 2.36-1.31 3.737-1.129 2.327.309 4.082 2.413 4.082 4.895v4.467c0 .534.208 1.036.585 1.413L18.485 16H5.516zM14 18.341C14 19.24 13.084 20 12 20s-2-.76-2-1.659V18h4v.341zm6.52-3.133l-1.8-1.804V8.937c0-3.481-2.502-6.438-5.82-6.877-1.922-.256-3.862.331-5.317 1.607C6.119 4.949 5.28 6.793 5.28 8.727l-.001 4.677-1.801 1.804c-.47.47-.608 1.169-.354 1.782.255.614.848 1.01 1.512 1.01H8v.341C8 20.359 9.794 22 12 22s4-1.641 4-3.659V18h3.363c.664 0 1.256-.396 1.51-1.009.255-.614.117-1.314-.352-1.783z" transform="translate(-323 -746) translate(0 730) translate(315 8) translate(8 8)"/>
                    </g>
                </g>
            </g>
        </g>
    </g>
</svg>
