<svg xmlns="http://www.w3.org/2000/svg" width="24" height="24" viewBox="0 0 24 24">
    <g fill="none" fill-rule="evenodd">
        <g fill="#1B3C59">
            <g>
                <g>
                    <g>
                        <path d="M11 13c.55 0 1 .45 1 1s-.45 1-1 1H7c-.55 0-1-.45-1-1s.45-1 1-1zm6 0c.55 0 1 .45 1 1s-.45 1-1 1h-2c-.55 0-1-.45-1-1s.45-1 1-1zm3 3c0 .551-.448 1-1 1H5c-.552 0-1-.449-1-1v-5h16v5zM4 8c0-.551.448-1 1-1h14c.552 0 1 .449 1 1v1H4V8zm15-3H5C3.346 5 2 6.346 2 8v8c0 1.654 1.346 3 3 3h14c1.654 0 3-1.346 3-3V8c0-1.654-1.346-3-3-3z" transform="translate(-176 -746) translate(0 730) translate(168 8) translate(8 8)"/>
                    </g>
                </g>
            </g>
        </g>
    </g>
</svg>
