<svg xmlns="http://www.w3.org/2000/svg" width="24" height="24" viewBox="0 0 24 24">
    <g fill="none" fill-rule="evenodd">
        <g fill="#1B3C59">
            <g>
                <g>
                    <g>
                        <path d="M12.14 0c1.364 0 2.713.191 4.01.569.437.127.64.63.414 1.025l-1.795 3.13c1.28.404 1.782 1.646 1.439 2.692-.088.265-.223.504-.395.707 1.048.589 2.004 1.408 2.84 2.436 1.67 2.055 2.628 4.648 2.628 7.113 0 5.111-4.077 6.328-9.14 6.328C7.08 24 3 22.786 3 17.672c0-2.465.958-5.058 2.629-7.113.836-1.028 1.791-1.847 2.84-2.436-.172-.204-.308-.442-.395-.707-.345-1.05.163-2.29 1.438-2.693l-1.795-3.13C7.491 1.2 7.694.697 8.131.57 9.429.19 10.778 0 12.141 0zm0 8.531c-1.967 0-3.892 1.035-5.42 2.915-1.449 1.782-2.314 4.11-2.314 6.226 0 3.496 2.241 4.931 7.735 4.931 5.493 0 7.734-1.435 7.734-4.931 0-2.116-.865-4.444-2.314-6.226-1.36-1.673-3.254-2.915-5.42-2.915zm0 2.11c.389 0 .704.314.704.703v.819c.365.123.718.34 1.035.647.28.27.286.716.016.995-.27.279-.715.286-.994.015-.343-.331-.72-.445-1.034-.312-.261.11-.43.365-.43.648 0 .388.316.703.704.703 1.163 0 2.109.947 2.109 2.11 0 .883-.558 1.68-1.387 1.982l-.02.007v.823c0 .389-.314.703-.702.703-.389 0-.703-.314-.703-.703v-.817c-.464-.156-.907-.467-1.287-.92-.25-.297-.211-.74.086-.99.298-.25.741-.211.99.086.373.443.793.621 1.154.49.277-.1.463-.367.463-.661 0-.388-.316-.703-.703-.703-1.163 0-2.11-.947-2.11-2.11 0-.849.506-1.612 1.287-1.943l.12-.046v-.823c0-.389.314-.703.703-.703zm1.425-4.778c-1.231-.246-2.497-.171-3.707.226-.368.121-.57.52-.448.888.087.264.32.45.596.478.7-.219 1.413-.33 2.135-.33.722 0 1.437.111 2.138.331.273-.03.505-.213.593-.48.12-.367-.08-.766-.45-.887-.281-.093-.566-.168-.853-.225l-.005-.001zM12.14 1.406c-.927 0-1.846.098-2.743.292l1.549 2.7c.793-.11 1.595-.11 2.388 0l1.548-2.7c-.897-.194-1.816-.292-2.742-.292z" transform="translate(-103 -746) translate(0 730) translate(95 8) translate(8 8)"/>
                    </g>
                </g>
            </g>
        </g>
    </g>
</svg>
